<svg xmlns="http://www.w3.org/2000/svg" xmlns:xlink="http://www.w3.org/1999/xlink" xmlns:lucid="lucid" width="1311.42" height="731.09"><g transform="translate(-40 120)" lucid:page-tab-id="0_0"><path d="M880 230c0 93.9-89.54 170-200 170s-200-76.1-200-170S569.54 60 680 60s200 76.1 200 170z" stroke="#c7e8ac" stroke-width="3" fill="#c7e8ac"/><path d="M300 120c0 44.18-35.82 80-80 80s-80-35.82-80-80 35.82-80 80-80 80 35.82 80 80z" stroke="#5e5e5e" stroke-width="3" fill="#ffc374"/><use xlink:href="#a" transform="matrix(1,0,0,1,145,45) translate(44.78895061728395 50.59027777777778)"/><use xlink:href="#b" transform="matrix(1,0,0,1,145,45) translate(87.99882716049383 50.59027777777778)"/><use xlink:href="#c" transform="matrix(1,0,0,1,145,45) translate(17.716049382716044 77.25694444444446)"/><use xlink:href="#d" transform="matrix(1,0,0,1,145,45) translate(59.5729012345679 103.92361111111111)"/><path d="M760 230c0 46.94-35.82 85-80 85s-80-38.06-80-85 35.82-85 80-85 80 38.06 80 85z" stroke="#5e5e5e" stroke-width="3" fill="#fff"/><use xlink:href="#e" transform="matrix(1,0,0,1,605,150) translate(31.85685185185185 42.77777777777778)"/><use xlink:href="#f" transform="matrix(1,0,0,1,605,150) translate(20.092592592592595 69.44444444444446)"/><use xlink:href="#g" transform="matrix(1,0,0,1,605,150) translate(81.75925925925927 69.44444444444446)"/><use xlink:href="#h" transform="matrix(1,0,0,1,605,150) translate(111.38888888888889 69.44444444444446)"/><use xlink:href="#i" transform="matrix(1,0,0,1,605,150) translate(28.765432098765437 96.11111111111111)"/><use xlink:href="#j" transform="matrix(1,0,0,1,605,150) translate(110.12345679012344 96.11111111111111)"/><use xlink:href="#k" transform="matrix(1,0,0,1,605,150) translate(28.15314814814814 122.7777777777778)"/><path d="M1100 450c0 38.66-35.82 70-80 70s-80-31.34-80-70 35.82-70 80-70 80 31.34 80 70z" stroke="#5e5e5e" stroke-width="3" fill="#83bbe5"/><use xlink:href="#l" transform="matrix(1,0,0,1,945,385) translate(12.072901234567896 54.34027777777778)"/><use xlink:href="#m" transform="matrix(1,0,0,1,945,385) translate(125.59141975308643 54.34027777777778)"/><use xlink:href="#n" transform="matrix(1,0,0,1,945,385) translate(19.537037037037038 81.00694444444446)"/><use xlink:href="#o" transform="matrix(1,0,0,1,945,385) translate(89.78395061728395 81.00694444444446)"/><path d="M1192.25 472.25c0 6.77-5.48 12.25-12.25 12.25s-12.25-5.48-12.25-12.25S1173.23 460 1180 460s12.25 5.48 12.25 12.25z" stroke="#83bbe5" stroke-width="3" fill="#99d2f2"/><path d="M1180 484.5v28.3c0 3.3 1.92 7.88 4.3 10.2l35.7 35m-40-39.2l-40 39.2m0-61.25h80" stroke="#83bbe5" stroke-width="3" fill="none"/><path d="M1140 466c0-3.3 2.7-6 6-6h68c3.3 0 6 2.7 6 6v108c0 3.3-2.7 6-6 6h-68c-3.3 0-6-2.7-6-6z" fill="none"/><use xlink:href="#p" transform="matrix(1,0,0,1,1060,558) translate(85.52469135802468 17.77777777777778)"/><path d="M60 286c0-3.3 2.7-6 6-6h108c3.3 0 6 2.7 6 6v48c0 3.3-2.7 6-6 6H66c-3.3 0-6-2.7-6-6z" stroke="#5e5e5e" stroke-width="3" fill="#ffc374"/><use xlink:href="#q" transform="matrix(1,0,0,1,65,285) translate(16.141975308641975 30.27777777777778)"/><path d="M220 286c0-3.3 2.7-6 6-6h148c3.3 0 6 2.7 6 6v48c0 3.3-2.7 6-6 6H226c-3.3 0-6-2.7-6-6z" stroke="#5e5e5e" stroke-width="3" fill="#ffc374"/><use xlink:href="#r" transform="matrix(1,0,0,1,225,285) translate(10.277777777777771 30.27777777777778)"/><path d="M353.55 109.65l-9.03 3.65-6.55 2.25-5.85 1.7-5.65 1.3-5.7 1.03-5.94.76-6.36.5-5.94.13-.05-2 5.9-.14 6.25-.48 5.84-.74 5.6-1 5.54-1.3 5.77-1.65 6.45-2.23 8.96-3.62 19.08-8.24h5.05zM486.6 95.7l5.2 1.92 4.83 2.03 4.48 2.1 4.16 2.17 3.85 2.22 2.42 1.53-1.07 1.7-2.37-1.52-3.78-2.18-4.08-2.12-4.4-2.07-4.75-2-5.12-1.9-2.12-.7v-2.1z" fill="#5e5e5e"/><path d="M302.55 120.97l-1.08.03.03-.98V119l1-.03zM522.92 118l-14.06-5.25 5.77-7.26z" fill="#5e5e5e"/><path d="M525.45 120l-18.23-6.8 7.48-9.4zm-14.95-7.7l9.88 3.68-5.83-8.8z" fill="#5e5e5e"/><use xlink:href="#s" transform="matrix(1,0,0,1,345.80165431065865,78.22677738198081) translate(0.0049999999999954525 14.222222222222223)"/><use xlink:href="#t" transform="matrix(1,0,0,1,345.80165431065865,78.22677738198081) translate(25.63462962962963 14.222222222222223)"/><use xlink:href="#u" transform="matrix(1,0,0,1,345.80165431065865,78.22677738198081) translate(71.01734567901235 14.222222222222223)"/><use xlink:href="#v" transform="matrix(1,0,0,1,345.80165431065865,78.22677738198081) translate(90.77043209876544 14.222222222222223)"/><use xlink:href="#w" transform="matrix(1,0,0,1,345.80165431065865,78.22677738198081) translate(128.15314814814815 14.222222222222223)"/><path d="M483.8 187.18l-2.15-.54-3.2-.66-3.34-.52-3.5-.38-3.7-.22-4.02-.05-4.37.17-4.9.4-5.66.75-7 1.27-10.15 2.35-33.93 8.86-5.45 1-4.2.55-3.44.3-2.96.1-2.1-.02-3.05-.16-3.1-.35-3.17-.55-3.3-.77-3.53-1.03-3.84-1.37-4.36-1.85-5.22-2.58-7.08-4.03L308.7 166" stroke="#5e5e5e" stroke-width="2" fill="none"/><path d="M485.06 186.48l-.23.7-.34 1.2-.98-.23.5-1.94z" fill="#5e5e5e"/><path d="M295.7 158.03l14.57 3.5-4.85 7.9z" stroke="#5e5e5e" stroke-width="2" fill="#5e5e5e"/><path d="M804.13 388.24l3.93 5.4 3.9 4.95 3.93 4.53 3.93 4.2 3.98 3.9 4.04 3.62 4.1 3.4 4.18 3.17 4.3 3 4.43 2.8 4.6 2.65 4.77 2.5 5 2.35 5.28 2.22 5.6 2.07 5.95 1.95 6.42 1.8 6.96 1.62 7.63 1.46 8.46 1.24 9.5 1 10.83.67 11.67.24-.04 2-11.7-.24-10.94-.68-9.57-1-8.54-1.26-7.7-1.47-7.06-1.65-6.5-1.8-6.04-1.98-5.67-2.1-5.35-2.25-5.07-2.4-4.86-2.53-4.66-2.7-4.5-2.85-4.36-3.03-4.25-3.23-4.17-3.43-4.1-3.7-4.03-3.94-4-4.26-3.97-4.6-3.97-5-3.97-5.5-.7-1 1.67-1.12z" fill="#5e5e5e"/><path d="M938.53 449l-.03.98v.57l.02.45-1.07-.02.04-2zM806.07 384.54l-7.9 4.84-3.5-14.6z" fill="#5e5e5e"/><path d="M807.77 384.67l-10.25 6.28-4.54-18.92zm-8.95 3.13l5.56-3.4-8.02-6.85zM940.06 345.8l4.46 3.3 4 3.25 3.7 3.26 3.46 3.35 3.3 3.47 3.15 3.64 3.08 3.87 2.4 3.27-1.63 1.18-2.35-3.24-3.03-3.8-3.12-3.58-3.22-3.4-3.4-3.28-3.62-3.2-3.95-3.2-4.4-3.25-3.72-2.52h3.58zM900 323.57h-4.24v.1l-34.15-17.24.9-1.78zM974.68 386.83l-11.35-9.8 7.92-4.8z" fill="#5e5e5e"/><path d="M976.36 389.6l-14.73-12.7 10.28-6.24zm-11.34-12.43l8 6.9-2.42-10.27zM862.53 304.67l-.9 1.78-.96-.48 1-1.74z" fill="#5e5e5e"/><use xlink:href="#x" transform="matrix(1,0,0,1,895.759002749297,323.5792949469571) translate(0.004999999999999005 14.222222222222223)"/><path d="M1092.82 483.8h35.4c3.32 0 6 2.68 6 6V514c0 3.3 2.7 6 6 6h17.9" stroke="#5e5e5e" stroke-width="2" fill="none"/><path d="M1092.84 484.8h-1.63l.17-.24 1.03-1.76h.44z" fill="#5e5e5e"/><path d="M1173.4 520l-14.27 4.64v-9.28z" stroke="#5e5e5e" stroke-width="2" fill="#5e5e5e"/><path d="M120 277.5V246c0-3.3 2.7-6 6-6h88c3.3 0 6-2.7 6-6v-14" stroke="#5e5e5e" stroke-width="2" fill="none"/><path d="M121 278.5h-2v-1.03h2z" fill="#5e5e5e"/><path d="M220 204.74l4.64 14.26h-9.28z" stroke="#5e5e5e" stroke-width="2" fill="#5e5e5e"/><path d="M220 220v14c0 3.3 2.7 6 6 6h68c3.3 0 6 2.7 6 6v31.5" stroke="#5e5e5e" stroke-width="2" fill="none"/><path d="M220 204.74l4.64 14.26h-9.28z" stroke="#5e5e5e" stroke-width="2" fill="#5e5e5e"/><path d="M301 278.5h-2v-1.03h2z" fill="#5e5e5e"/><path d="M660-40c0 33.14-35.82 60-80 60s-80-26.86-80-60 35.82-60 80-60 80 26.86 80 60z" stroke="#5e5e5e" stroke-width="3" fill="#fff"/><use xlink:href="#y" transform="matrix(1,0,0,1,500,-100) translate(42.055 29.41)"/><use xlink:href="#z" transform="matrix(1,0,0,1,500,-100) translate(15.65500000000001 51.01)"/><use xlink:href="#A" transform="matrix(1,0,0,1,500,-100) translate(63.555000000000014 51.01)"/><use xlink:href="#B" transform="matrix(1,0,0,1,500,-100) translate(130.405 51.01)"/><use xlink:href="#C" transform="matrix(1,0,0,1,500,-100) translate(46.029999999999994 72.61)"/><use xlink:href="#D" transform="matrix(1,0,0,1,500,-100) translate(93.97999999999999 72.61)"/><use xlink:href="#E" transform="matrix(1,0,0,1,500,-100) translate(37.055 94.21000000000001)"/><path d="M320 126c0-3.3 2.7-6 6-6h168c3.3 0 6 2.7 6 6v39.67c0 3.3-2.7 6-6 6H326c-3.3 0-6-2.7-6-6z" stroke="#000" stroke-opacity="0" stroke-width="3" fill="#fff" fill-opacity="0"/><g><use xlink:href="#F" transform="matrix(1,0,0,1,325,125) translate(9.944444444444457 15.069444444444443)"/><use xlink:href="#G" transform="matrix(1,0,0,1,325,125) translate(49.65432098765432 15.069444444444443)"/><use xlink:href="#H" transform="matrix(1,0,0,1,325,125) translate(107.42592592592592 15.069444444444443)"/><use xlink:href="#I" transform="matrix(1,0,0,1,325,125) translate(152.27777777777777 15.069444444444443)"/><use xlink:href="#J" transform="matrix(1,0,0,1,325,125) translate(58.66358024691358 33.73611111111111)"/></g><path d="M1120 80c0 22.1-17.9 40-40 40s-40-17.9-40-40 17.9-40 40-40 40 17.9 40 40z" stroke="#5e5e5e" stroke-width="3" fill="#c7e8ac"/><g><use xlink:href="#K" transform="matrix(1,0,0,1,1045,45) translate(22.654320987654323 39.65277777777778)"/></g><path d="M1160 211.67c0 22.1-17.9 40-40 40s-40-17.9-40-40 17.9-40 40-40 40 17.9 40 40z" stroke="#5e5e5e" stroke-width="3" fill="#c7e8ac"/><g><use xlink:href="#L" transform="matrix(1,0,0,1,1085,176.66666666666669) translate(28.82716049382716 39.65277777777778)"/></g><path d="M1140 26c0-3.3 2.7-6 6-6h88c3.3 0 6 2.7 6 6v43c0 3.3-2.7 6-6 6h-88c-3.3 0-6-2.7-6-6z" stroke="#000" stroke-opacity="0" stroke-width="3" fill="#fff" fill-opacity="0"/><g><use xlink:href="#M" transform="matrix(1,0,0,1,1145,25) translate(10.92901234567902 12.444444444444443)"/><use xlink:href="#N" transform="matrix(1,0,0,1,1145,25) translate(29.033950617283953 12.444444444444443)"/><use xlink:href="#O" transform="matrix(1,0,0,1,1145,25) translate(15.185185185185194 31.111111111111107)"/><use xlink:href="#P" transform="matrix(1,0,0,1,1145,25) translate(45.4320987654321 31.111111111111107)"/><use xlink:href="#Q" transform="matrix(1,0,0,1,1145,25) translate(3.0864197530864246 49.77777777777777)"/><use xlink:href="#R" transform="matrix(1,0,0,1,1145,25) translate(7.018518518518526 68.44444444444443)"/><use xlink:href="#S" transform="matrix(1,0,0,1,1145,25) translate(62.28395061728395 68.44444444444443)"/><use xlink:href="#T" transform="matrix(1,0,0,1,1145,25) translate(12.182098765432109 87.1111111111111)"/><use xlink:href="#U" transform="matrix(1,0,0,1,1145,25) translate(60.53395061728395 87.1111111111111)"/></g><path d="M1160 141.33c0-3.3 2.7-6 6-6h88c3.3 0 6 2.7 6 6V214c0 3.3-2.7 6-6 6h-88c-3.3 0-6-2.7-6-6z" stroke="#000" stroke-opacity="0" stroke-width="3" fill="#fff" fill-opacity="0"/><g><use xlink:href="#V" transform="matrix(1,0,0,1,1165,140.33333333333334) translate(0.14814814814815236 12.444444444444443)"/><use xlink:href="#W" transform="matrix(1,0,0,1,1165,140.33333333333334) translate(29.53086419753086 12.444444444444443)"/><use xlink:href="#X" transform="matrix(1,0,0,1,1165,140.33333333333334) translate(4.40432098765433 31.111111111111107)"/><use xlink:href="#Y" transform="matrix(1,0,0,1,1165,140.33333333333334) translate(33.78703703703704 31.111111111111107)"/><use xlink:href="#Z" transform="matrix(1,0,0,1,1165,140.33333333333334) translate(8.271604938271615 49.77777777777777)"/><use xlink:href="#aa" transform="matrix(1,0,0,1,1165,140.33333333333334) translate(29.876543209876548 49.77777777777777)"/><use xlink:href="#ab" transform="matrix(1,0,0,1,1165,140.33333333333334) translate(21.688271604938276 68.44444444444443)"/></g><path d="M1037.52 80.23l-196.34 45.5" stroke="#5e5e5e" stroke-width="2" fill="none"/><path d="M1038.5 79.98l.04 1.04-.8.2-.47-1.96 1.3-.3zM841.43 126.7l-.5.12-.9-1.05-.6-.65 1.55-.36z" fill="#5e5e5e"/><path d="M1077.5 211.67H881.33" stroke="#5e5e5e" stroke-width="2" fill="none"/><path d="M1078.5 211.65l.03 1.02h-1.06v-2h1.1zM881.36 212.67h-.9l-.26-2h1.16z" fill="#5e5e5e"/><path d="M540 110c0 60.75-107.45 110-240 110S60 170.75 60 110 167.45 0 300 0s240 49.25 240 110z" stroke="#5e5e5e" stroke-width="3" fill-opacity="0"/><g><path d="M1087.02 273.8c-134.97 20.7-253.68-23.03-265.12-97.67-11.45-74.65 88.7-151.95 223.67-172.65 134.97-20.7 253.68 23.03 265.12 97.68C1322.13 175.8 1222 253.1 1087 273.8z" stroke="#5e5e5e" stroke-width="3" fill-opacity="0"/></g><g><path d="M1110.06 490.9c-25.06 55.33-119.86 66.46-211.73 24.85-91.87-41.62-146.02-120.2-120.95-175.55 25.06-55.34 119.86-66.47 211.73-24.85 91.87 41.6 146.03 120.2 120.96 175.54z" stroke="#5e5e5e" stroke-width="3" fill-opacity="0"/></g><defs><path fill="#333" d="M30 0v-248h33v221h125V0H30" id="ac"/><path fill="#333" d="M100-194c63 0 86 42 84 106H49c0 40 14 67 53 68 26 1 43-12 49-29l28 8c-11 28-37 45-77 45C44 4 14-33 15-96c1-61 26-98 85-98zm52 81c6-60-76-77-97-28-3 7-6 17-6 28h103" id="ad"/><g id="a"><use transform="matrix(0.06172839506172839,0,0,0.06172839506172839,0,0)" xlink:href="#ac"/><use transform="matrix(0.06172839506172839,0,0,0.06172839506172839,12.345679012345679,0)" xlink:href="#ad"/><use transform="matrix(0.06172839506172839,0,0,0.06172839506172839,24.691358024691358,0)" xlink:href="#ad"/></g><path fill="#333" d="M24 0v-261h32V0H24" id="ae"/><path fill="#333" d="M141-36C126-15 110 5 73 4 37 3 15-17 15-53c-1-64 63-63 125-63 3-35-9-54-41-54-24 1-41 7-42 31l-33-3c5-37 33-52 76-52 45 0 72 20 72 64v82c-1 20 7 32 28 27v20c-31 9-61-2-59-35zM48-53c0 20 12 33 32 33 41-3 63-29 60-74-43 2-92-5-92 41" id="af"/><g id="b"><use transform="matrix(0.06172839506172839,0,0,0.06172839506172839,0,0)" xlink:href="#ae"/><use transform="matrix(0.06172839506172839,0,0,0.06172839506172839,4.876543209876543,0)" xlink:href="#af"/></g><path fill="#333" d="M24-231v-30h32v30H24zM24 0v-190h32V0H24" id="ag"/><path fill="#333" d="M117-194c89-4 53 116 60 194h-32v-121c0-31-8-49-39-48C34-167 62-67 57 0H25l-1-190h30c1 10-1 24 2 32 11-22 29-35 61-36" id="ah"/><path fill="#333" d="M101-234c-31-9-42 10-38 44h38v23H63V0H32v-167H5v-23h27c-7-52 17-82 69-68v24" id="ai"/><path fill="#333" d="M100-194c62-1 85 37 85 99 1 63-27 99-86 99S16-35 15-95c0-66 28-99 85-99zM99-20c44 1 53-31 53-75 0-43-8-75-51-75s-53 32-53 75 10 74 51 75" id="aj"/><path fill="#333" d="M114-163C36-179 61-72 57 0H25l-1-190h30c1 12-1 29 2 39 6-27 23-49 58-41v29" id="ak"/><path fill="#333" d="M210-169c-67 3-38 105-44 169h-31v-121c0-29-5-50-35-48C34-165 62-65 56 0H25l-1-190h30c1 10-1 24 2 32 10-44 99-50 107 0 11-21 27-35 58-36 85-2 47 119 55 194h-31v-121c0-29-5-49-35-48" id="al"/><path fill="#333" d="M96-169c-40 0-48 33-48 73s9 75 48 75c24 0 41-14 43-38l32 2c-6 37-31 61-74 61-59 0-76-41-82-99-10-93 101-131 147-64 4 7 5 14 7 22l-32 3c-4-21-16-35-41-35" id="am"/><g id="c"><use transform="matrix(0.06172839506172839,0,0,0.06172839506172839,0,0)" xlink:href="#ag"/><use transform="matrix(0.06172839506172839,0,0,0.06172839506172839,4.876543209876543,0)" xlink:href="#ah"/><use transform="matrix(0.06172839506172839,0,0,0.06172839506172839,17.22222222222222,0)" xlink:href="#ai"/><use transform="matrix(0.06172839506172839,0,0,0.06172839506172839,23.39506172839506,0)" xlink:href="#aj"/><use transform="matrix(0.06172839506172839,0,0,0.06172839506172839,35.74074074074074,0)" xlink:href="#ak"/><use transform="matrix(0.06172839506172839,0,0,0.06172839506172839,43.08641975308642,0)" xlink:href="#al"/><use transform="matrix(0.06172839506172839,0,0,0.06172839506172839,61.5432098765432,0)" xlink:href="#af"/><use transform="matrix(0.06172839506172839,0,0,0.06172839506172839,73.88888888888889,0)" xlink:href="#am"/><use transform="matrix(0.06172839506172839,0,0,0.06172839506172839,85,0)" xlink:href="#ag"/><use transform="matrix(0.06172839506172839,0,0,0.06172839506172839,89.87654320987654,0)" xlink:href="#aj"/><use transform="matrix(0.06172839506172839,0,0,0.06172839506172839,102.22222222222223,0)" xlink:href="#ah"/></g><path fill="#333" d="M85-194c31 0 48 13 60 33l-1-100h32l1 261h-30c-2-10 0-23-3-31C134-8 116 4 85 4 32 4 16-35 15-94c0-66 23-100 70-100zm9 24c-40 0-46 34-46 75 0 40 6 74 45 74 42 0 51-32 51-76 0-42-9-74-50-73" id="an"/><path fill="#333" d="M33-154v-36h34v36H33zM33 0v-36h34V0H33" id="ao"/><g id="d"><use transform="matrix(0.06172839506172839,0,0,0.06172839506172839,0,0)" xlink:href="#an"/><use transform="matrix(0.06172839506172839,0,0,0.06172839506172839,12.345679012345679,0)" xlink:href="#ad"/><use transform="matrix(0.06172839506172839,0,0,0.06172839506172839,24.691358024691358,0)" xlink:href="#ao"/></g><path fill="#333" d="M190 0L58-211 59 0H30v-248h39L202-35l-2-213h31V0h-41" id="ap"/><path fill="#333" d="M135-143c-3-34-86-38-87 0 15 53 115 12 119 90S17 21 10-45l28-5c4 36 97 45 98 0-10-56-113-15-118-90-4-57 82-63 122-42 12 7 21 19 24 35" id="aq"/><path fill="#333" d="M59-47c-2 24 18 29 38 22v24C64 9 27 4 27-40v-127H5v-23h24l9-43h21v43h35v23H59v120" id="ar"/><g id="e"><use transform="matrix(0.06172839506172839,0,0,0.06172839506172839,0,0)" xlink:href="#ap"/><use transform="matrix(0.06172839506172839,0,0,0.06172839506172839,15.987654320987653,0)" xlink:href="#ad"/><use transform="matrix(0.06172839506172839,0,0,0.06172839506172839,28.333333333333332,0)" xlink:href="#am"/><use transform="matrix(0.06172839506172839,0,0,0.06172839506172839,39.44444444444444,0)" xlink:href="#ad"/><use transform="matrix(0.06172839506172839,0,0,0.06172839506172839,51.79012345679012,0)" xlink:href="#aq"/><use transform="matrix(0.06172839506172839,0,0,0.06172839506172839,62.90123456790123,0)" xlink:href="#ag"/><use transform="matrix(0.06172839506172839,0,0,0.06172839506172839,67.77777777777777,0)" xlink:href="#ar"/><use transform="matrix(0.06172839506172839,0,0,0.06172839506172839,73.9506172839506,0)" xlink:href="#af"/></g><path fill="#333" d="M115-194c53 0 69 39 70 98 0 66-23 100-70 100C84 3 66-7 56-30L54 0H23l1-261h32v101c10-23 28-34 59-34zm-8 174c40 0 45-34 45-75 0-40-5-75-45-74-42 0-51 32-51 76 0 43 10 73 51 73" id="as"/><g id="f"><use transform="matrix(0.06172839506172839,0,0,0.06172839506172839,0,0)" xlink:href="#aq"/><use transform="matrix(0.06172839506172839,0,0,0.06172839506172839,11.11111111111111,0)" xlink:href="#af"/><use transform="matrix(0.06172839506172839,0,0,0.06172839506172839,23.45679012345679,0)" xlink:href="#as"/><use transform="matrix(0.06172839506172839,0,0,0.06172839506172839,35.80246913580247,0)" xlink:href="#ad"/><use transform="matrix(0.06172839506172839,0,0,0.06172839506172839,48.148148148148145,0)" xlink:href="#ak"/></g><path fill="#333" d="M84 4C-5 8 30-112 23-190h32v120c0 31 7 50 39 49 72-2 45-101 50-169h31l1 190h-30c-1-10 1-25-2-33-11 22-28 36-60 37" id="at"/><g id="g"><use transform="matrix(0.06172839506172839,0,0,0.06172839506172839,0,0)" xlink:href="#aq"/><use transform="matrix(0.06172839506172839,0,0,0.06172839506172839,11.11111111111111,0)" xlink:href="#at"/></g><path fill="#333" d="M158-156l-14 65h45v19h-49L124 0h-19l15-72H56L41 0H22l15-72H2v-19h39l14-65H11v-19h48l15-71h20l-16 71h64l16-71h19l-16 71h37v19h-40zm-83 0L61-91h63l14-65H75" id="au"/><path fill="#333" d="M68-38c1 34 0 65-14 84H32c9-13 17-26 17-46H33v-38h35" id="av"/><g id="h"><use transform="matrix(0.06172839506172839,0,0,0.06172839506172839,0,0)" xlink:href="#au"/><use transform="matrix(0.06172839506172839,0,0,0.06172839506172839,12.345679012345679,0)" xlink:href="#av"/></g><g id="i"><use transform="matrix(0.06172839506172839,0,0,0.06172839506172839,0,0)" xlink:href="#ah"/><use transform="matrix(0.06172839506172839,0,0,0.06172839506172839,12.345679012345679,0)" xlink:href="#aj"/><use transform="matrix(0.06172839506172839,0,0,0.06172839506172839,24.691358024691358,0)" xlink:href="#al"/><use transform="matrix(0.06172839506172839,0,0,0.06172839506172839,43.148148148148145,0)" xlink:href="#as"/><use transform="matrix(0.06172839506172839,0,0,0.06172839506172839,55.49382716049382,0)" xlink:href="#ak"/><use transform="matrix(0.06172839506172839,0,0,0.06172839506172839,62.8395061728395,0)" xlink:href="#ad"/></g><path fill="#333" d="M179-190L93 31C79 59 56 82 12 73V49c39 6 53-20 64-50L1-190h34L92-34l54-156h33" id="aw"/><use transform="matrix(0.06172839506172839,0,0,0.06172839506172839,0,0)" xlink:href="#aw" id="j"/><g id="k"><use transform="matrix(0.06172839506172839,0,0,0.06172839506172839,0,0)" xlink:href="#at"/><use transform="matrix(0.06172839506172839,0,0,0.06172839506172839,12.345679012345679,0)" xlink:href="#as"/><use transform="matrix(0.06172839506172839,0,0,0.06172839506172839,24.691358024691358,0)" xlink:href="#ag"/><use transform="matrix(0.06172839506172839,0,0,0.06172839506172839,29.5679012345679,0)" xlink:href="#am"/><use transform="matrix(0.06172839506172839,0,0,0.06172839506172839,40.67901234567901,0)" xlink:href="#af"/><use transform="matrix(0.06172839506172839,0,0,0.06172839506172839,53.02469135802469,0)" xlink:href="#am"/><use transform="matrix(0.06172839506172839,0,0,0.06172839506172839,64.1358024691358,0)" xlink:href="#ag"/><use transform="matrix(0.06172839506172839,0,0,0.06172839506172839,69.01234567901234,0)" xlink:href="#aj"/><use transform="matrix(0.06172839506172839,0,0,0.06172839506172839,81.35802469135803,0)" xlink:href="#ah"/></g><path fill="#333" d="M212-179c-10-28-35-45-73-45-59 0-87 40-87 99 0 60 29 101 89 101 43 0 62-24 78-52l27 14C228-24 195 4 139 4 59 4 22-46 18-125c-6-104 99-153 187-111 19 9 31 26 39 46" id="ax"/><g id="l"><use transform="matrix(0.06172839506172839,0,0,0.06172839506172839,0,0)" xlink:href="#ax"/><use transform="matrix(0.06172839506172839,0,0,0.06172839506172839,15.987654320987653,0)" xlink:href="#aj"/><use transform="matrix(0.06172839506172839,0,0,0.06172839506172839,28.333333333333332,0)" xlink:href="#ah"/><use transform="matrix(0.06172839506172839,0,0,0.06172839506172839,40.67901234567901,0)" xlink:href="#ad"/><use transform="matrix(0.06172839506172839,0,0,0.06172839506172839,53.02469135802469,0)" xlink:href="#am"/><use transform="matrix(0.06172839506172839,0,0,0.06172839506172839,64.1358024691358,0)" xlink:href="#ar"/><use transform="matrix(0.06172839506172839,0,0,0.06172839506172839,70.30864197530863,0)" xlink:href="#af"/><use transform="matrix(0.06172839506172839,0,0,0.06172839506172839,82.65432098765432,0)" xlink:href="#an"/><use transform="matrix(0.06172839506172839,0,0,0.06172839506172839,95,0)" xlink:href="#aj"/></g><use transform="matrix(0.06172839506172839,0,0,0.06172839506172839,0,0)" xlink:href="#af" id="m"/><g id="n"><use transform="matrix(0.06172839506172839,0,0,0.06172839506172839,0,0)" xlink:href="#am"/><use transform="matrix(0.06172839506172839,0,0,0.06172839506172839,11.11111111111111,0)" xlink:href="#ae"/><use transform="matrix(0.06172839506172839,0,0,0.06172839506172839,15.987654320987653,0)" xlink:href="#ag"/><use transform="matrix(0.06172839506172839,0,0,0.06172839506172839,20.864197530864196,0)" xlink:href="#ad"/><use transform="matrix(0.06172839506172839,0,0,0.06172839506172839,33.20987654320987,0)" xlink:href="#ah"/><use transform="matrix(0.06172839506172839,0,0,0.06172839506172839,45.55555555555555,0)" xlink:href="#ar"/><use transform="matrix(0.06172839506172839,0,0,0.06172839506172839,51.72839506172839,0)" xlink:href="#ad"/></g><path fill="#333" d="M206 0h-36l-40-164L89 0H53L-1-190h32L70-26l43-164h34l41 164 42-164h31" id="ay"/><g id="o"><use transform="matrix(0.06172839506172839,0,0,0.06172839506172839,0,0)" xlink:href="#ay"/><use transform="matrix(0.06172839506172839,0,0,0.06172839506172839,15.987654320987653,0)" xlink:href="#ad"/><use transform="matrix(0.06172839506172839,0,0,0.06172839506172839,28.333333333333332,0)" xlink:href="#as"/></g><g id="p"><use transform="matrix(0.06172839506172839,0,0,0.06172839506172839,0,0)" xlink:href="#ax"/><use transform="matrix(0.06172839506172839,0,0,0.06172839506172839,15.987654320987653,0)" xlink:href="#ae"/><use transform="matrix(0.06172839506172839,0,0,0.06172839506172839,20.864197530864196,0)" xlink:href="#ag"/><use transform="matrix(0.06172839506172839,0,0,0.06172839506172839,25.74074074074074,0)" xlink:href="#ad"/><use transform="matrix(0.06172839506172839,0,0,0.06172839506172839,38.08641975308642,0)" xlink:href="#ah"/><use transform="matrix(0.06172839506172839,0,0,0.06172839506172839,50.432098765432094,0)" xlink:href="#ar"/><use transform="matrix(0.06172839506172839,0,0,0.06172839506172839,56.60493827160494,0)" xlink:href="#ad"/></g><path fill="#333" d="M137 0h-34L2-248h35l83 218 83-218h36" id="az"/><g id="q"><use transform="matrix(0.06172839506172839,0,0,0.06172839506172839,0,0)" xlink:href="#az"/><use transform="matrix(0.06172839506172839,0,0,0.06172839506172839,13.580246913580245,0)" xlink:href="#ad"/><use transform="matrix(0.06172839506172839,0,0,0.06172839506172839,25.925925925925924,0)" xlink:href="#am"/><use transform="matrix(0.06172839506172839,0,0,0.06172839506172839,37.03703703703704,0)" xlink:href="#ag"/><use transform="matrix(0.06172839506172839,0,0,0.06172839506172839,41.91358024691358,0)" xlink:href="#ah"/><use transform="matrix(0.06172839506172839,0,0,0.06172839506172839,54.25925925925926,0)" xlink:href="#aj"/><use transform="matrix(0.06172839506172839,0,0,0.06172839506172839,66.60493827160494,0)" xlink:href="#aq"/></g><path fill="#333" d="M33 0v-248h34V0H33" id="aA"/><g id="r"><use transform="matrix(0.06172839506172839,0,0,0.06172839506172839,0,0)" xlink:href="#aA"/><use transform="matrix(0.06172839506172839,0,0,0.06172839506172839,6.172839506172839,0)" xlink:href="#an"/><use transform="matrix(0.06172839506172839,0,0,0.06172839506172839,18.51851851851852,0)" xlink:href="#ad"/><use transform="matrix(0.06172839506172839,0,0,0.06172839506172839,30.864197530864196,0)" xlink:href="#ah"/><use transform="matrix(0.06172839506172839,0,0,0.06172839506172839,43.20987654320987,0)" xlink:href="#ar"/><use transform="matrix(0.06172839506172839,0,0,0.06172839506172839,49.382716049382715,0)" xlink:href="#ag"/><use transform="matrix(0.06172839506172839,0,0,0.06172839506172839,54.25925925925926,0)" xlink:href="#ai"/><use transform="matrix(0.06172839506172839,0,0,0.06172839506172839,60.4320987654321,0)" xlink:href="#ag"/><use transform="matrix(0.06172839506172839,0,0,0.06172839506172839,65.30864197530865,0)" xlink:href="#am"/><use transform="matrix(0.06172839506172839,0,0,0.06172839506172839,76.41975308641976,0)" xlink:href="#af"/><use transform="matrix(0.06172839506172839,0,0,0.06172839506172839,88.76543209876544,0)" xlink:href="#am"/><use transform="matrix(0.06172839506172839,0,0,0.06172839506172839,99.87654320987656,0)" xlink:href="#ag"/><use transform="matrix(0.06172839506172839,0,0,0.06172839506172839,104.7530864197531,0)" xlink:href="#aj"/><use transform="matrix(0.06172839506172839,0,0,0.06172839506172839,117.09876543209879,0)" xlink:href="#ah"/></g><path fill="#333" d="M24 0v-248h52v208h133V0H24" id="aB"/><path fill="#333" d="M185-48c-13 30-37 53-82 52C43 2 14-33 14-96s30-98 90-98c62 0 83 45 84 108H66c0 31 8 55 39 56 18 0 30-7 34-22zm-45-69c5-46-57-63-70-21-2 6-4 13-4 21h74" id="aC"/><g id="s"><use transform="matrix(0.04938271604938272,0,0,0.04938271604938272,0,0)" xlink:href="#aB"/><use transform="matrix(0.04938271604938272,0,0,0.04938271604938272,10.814814814814815,0)" xlink:href="#aC"/></g><path fill="#333" d="M135-194c53 0 70 44 70 98 0 56-19 98-73 100-31 1-45-17-59-34 3 33 2 69 2 105H25l-1-265h48c2 10 0 23 3 31 11-24 29-35 60-35zM114-30c33 0 39-31 40-66 0-38-9-64-40-64-56 0-55 130 0 130" id="aD"/><path fill="#333" d="M133-34C117-15 103 5 69 4 32 3 11-16 11-54c-1-60 55-63 116-61 1-26-3-47-28-47-18 1-26 9-28 27l-52-2c7-38 36-58 82-57s74 22 75 68l1 82c-1 14 12 18 25 15v27c-30 8-71 5-69-32zm-48 3c29 0 43-24 42-57-32 0-66-3-65 30 0 17 8 27 23 27" id="aE"/><path fill="#333" d="M137-138c1-29-70-34-71-4 15 46 118 7 119 86 1 83-164 76-172 9l43-7c4 19 20 25 44 25 33 8 57-30 24-41C81-84 22-81 20-136c-2-80 154-74 161-7" id="aF"/><g id="t"><use transform="matrix(0.04938271604938272,0,0,0.04938271604938272,0,0)" xlink:href="#aD"/><use transform="matrix(0.04938271604938272,0,0,0.04938271604938272,10.814814814814815,0)" xlink:href="#aE"/><use transform="matrix(0.04938271604938272,0,0,0.04938271604938272,20.69135802469136,0)" xlink:href="#aF"/><use transform="matrix(0.04938271604938272,0,0,0.04938271604938272,30.567901234567906,0)" xlink:href="#aE"/></g><path fill="#333" d="M25 0v-261h50V0H25" id="aG"/><g id="u"><use transform="matrix(0.04938271604938272,0,0,0.04938271604938272,0,0)" xlink:href="#aG"/><use transform="matrix(0.04938271604938272,0,0,0.04938271604938272,4.938271604938272,0)" xlink:href="#aE"/></g><path fill="#333" d="M25-224v-37h50v37H25zM25 0v-190h50V0H25" id="aH"/><path fill="#333" d="M135-194c87-1 58 113 63 194h-50c-7-57 23-157-34-157-59 0-34 97-39 157H25l-1-190h47c2 12-1 28 3 38 12-26 28-41 61-42" id="aI"/><path fill="#333" d="M121-226c-27-7-43 5-38 36h38v33H83V0H34v-157H6v-33h28c-9-59 32-81 87-68v32" id="aJ"/><path fill="#333" d="M110-194c64 0 96 36 96 99 0 64-35 99-97 99-61 0-95-36-95-99 0-62 34-99 96-99zm-1 164c35 0 45-28 45-65 0-40-10-65-43-65-34 0-45 26-45 65 0 36 10 65 43 65" id="aK"/><g id="v"><use transform="matrix(0.04938271604938272,0,0,0.04938271604938272,0,0)" xlink:href="#aH"/><use transform="matrix(0.04938271604938272,0,0,0.04938271604938272,4.938271604938272,0)" xlink:href="#aI"/><use transform="matrix(0.04938271604938272,0,0,0.04938271604938272,15.753086419753087,0)" xlink:href="#aJ"/><use transform="matrix(0.04938271604938272,0,0,0.04938271604938272,21.62962962962963,0)" xlink:href="#aK"/></g><use transform="matrix(0.04938271604938272,0,0,0.04938271604938272,0,0)" xlink:href="#aE" id="w"/><path fill="#333" d="M186 0v-106H76V0H24v-248h52v99h110v-99h50V0h-50" id="aL"/><path fill="#333" d="M136-208V0H84v-208H4v-40h212v40h-80" id="aM"/><path fill="#333" d="M24-248c93 1 206-16 204 79-1 75-69 88-152 82V0H24v-248zm52 121c47 0 100 7 100-41 0-47-54-39-100-39v80" id="aN"/><g id="x"><use transform="matrix(0.04938271604938272,0,0,0.04938271604938272,0,0)" xlink:href="#aL"/><use transform="matrix(0.04938271604938272,0,0,0.04938271604938272,12.790123456790125,0)" xlink:href="#aM"/><use transform="matrix(0.04938271604938272,0,0,0.04938271604938272,23.60493827160494,0)" xlink:href="#aM"/><use transform="matrix(0.04938271604938272,0,0,0.04938271604938272,34.41975308641975,0)" xlink:href="#aN"/></g><path d="M30-248c87 1 191-15 191 75 0 78-77 80-158 76V0H30v-248zm33 125c57 0 124 11 124-50 0-59-68-47-124-48v98" id="aO"/><path d="M114-163C36-179 61-72 57 0H25l-1-190h30c1 12-1 29 2 39 6-27 23-49 58-41v29" id="aP"/><path d="M100-194c62-1 85 37 85 99 1 63-27 99-86 99S16-35 15-95c0-66 28-99 85-99zM99-20c44 1 53-31 53-75 0-43-8-75-51-75s-53 32-53 75 10 74 51 75" id="aQ"/><path d="M59-47c-2 24 18 29 38 22v24C64 9 27 4 27-40v-127H5v-23h24l9-43h21v43h35v23H59v120" id="aR"/><path d="M96-169c-40 0-48 33-48 73s9 75 48 75c24 0 41-14 43-38l32 2c-6 37-31 61-74 61-59 0-76-41-82-99-10-93 101-131 147-64 4 7 5 14 7 22l-32 3c-4-21-16-35-41-35" id="aS"/><path d="M24 0v-261h32V0H24" id="aT"/><g id="y"><use transform="matrix(0.05,0,0,0.05,0,0)" xlink:href="#aO"/><use transform="matrix(0.05,0,0,0.05,12,0)" xlink:href="#aP"/><use transform="matrix(0.05,0,0,0.05,17.95,0)" xlink:href="#aQ"/><use transform="matrix(0.05,0,0,0.05,27.950000000000003,0)" xlink:href="#aR"/><use transform="matrix(0.05,0,0,0.05,32.95,0)" xlink:href="#aQ"/><use transform="matrix(0.05,0,0,0.05,42.95,0)" xlink:href="#aS"/><use transform="matrix(0.05,0,0,0.05,51.95,0)" xlink:href="#aQ"/><use transform="matrix(0.05,0,0,0.05,61.95,0)" xlink:href="#aT"/><use transform="matrix(0.05,0,0,0.05,65.9,0)" xlink:href="#aQ"/></g><path d="M232-93c-1 65-40 97-104 97C67 4 28-28 28-90v-158h33c8 89-33 224 67 224 102 0 64-133 71-224h33v155" id="aU"/><path d="M30-248c118-7 216 8 213 122C240-48 200 0 122 0H30v-248zM63-27c89 8 146-16 146-99s-60-101-146-95v194" id="aV"/><path d="M33-154v-36h34v36H33zM33 0v-36h34V0H33" id="aW"/><g id="z"><use transform="matrix(0.05,0,0,0.05,0,0)" xlink:href="#aU"/><use transform="matrix(0.05,0,0,0.05,12.950000000000001,0)" xlink:href="#aV"/><use transform="matrix(0.05,0,0,0.05,25.900000000000002,0)" xlink:href="#aO"/><use transform="matrix(0.05,0,0,0.05,37.900000000000006,0)" xlink:href="#aW"/></g><path d="M100-194c63 0 86 42 84 106H49c0 40 14 67 53 68 26 1 43-12 49-29l28 8c-11 28-37 45-77 45C44 4 14-33 15-96c1-61 26-98 85-98zm52 81c6-60-76-77-97-28-3 7-6 17-6 28h103" id="aX"/><path d="M210-169c-67 3-38 105-44 169h-31v-121c0-29-5-50-35-48C34-165 62-65 56 0H25l-1-190h30c1 10-1 24 2 32 10-44 99-50 107 0 11-21 27-35 58-36 85-2 47 119 55 194h-31v-121c0-29-5-49-35-48" id="aY"/><path d="M24-231v-30h32v30H24zM24 0v-190h32V0H24" id="aZ"/><g id="A"><use transform="matrix(0.05,0,0,0.05,0,0)" xlink:href="#aO"/><use transform="matrix(0.05,0,0,0.05,12,0)" xlink:href="#aX"/><use transform="matrix(0.05,0,0,0.05,22,0)" xlink:href="#aP"/><use transform="matrix(0.05,0,0,0.05,27.950000000000003,0)" xlink:href="#aY"/><use transform="matrix(0.05,0,0,0.05,42.9,0)" xlink:href="#aZ"/><use transform="matrix(0.05,0,0,0.05,46.85,0)" xlink:href="#aR"/><use transform="matrix(0.05,0,0,0.05,51.85,0)" xlink:href="#aX"/></g><g id="B"><use transform="matrix(0.05,0,0,0.05,0,0)" xlink:href="#aX"/><use transform="matrix(0.05,0,0,0.05,10,0)" xlink:href="#aT"/></g><path d="M117-194c89-4 53 116 60 194h-32v-121c0-31-8-49-39-48C34-167 62-67 57 0H25l-1-190h30c1 10-1 24 2 32 11-22 29-35 61-36" id="ba"/><path d="M108 0H70L1-190h34L89-25l56-165h34" id="bb"/><g id="C"><use transform="matrix(0.05,0,0,0.05,0,0)" xlink:href="#aX"/><use transform="matrix(0.05,0,0,0.05,10,0)" xlink:href="#ba"/><use transform="matrix(0.05,0,0,0.05,20,0)" xlink:href="#bb"/><use transform="matrix(0.05,0,0,0.05,29,0)" xlink:href="#aZ"/><use transform="matrix(0.05,0,0,0.05,32.95,0)" xlink:href="#aQ"/></g><path d="M85-194c31 0 48 13 60 33l-1-100h32l1 261h-30c-2-10 0-23-3-31C134-8 116 4 85 4 32 4 16-35 15-94c0-66 23-100 70-100zm9 24c-40 0-46 34-46 75 0 40 6 74 45 74 42 0 51-32 51-76 0-42-9-74-50-73" id="bc"/><g id="D"><use transform="matrix(0.05,0,0,0.05,0,0)" xlink:href="#bc"/><use transform="matrix(0.05,0,0,0.05,10,0)" xlink:href="#aX"/></g><path d="M141-36C126-15 110 5 73 4 37 3 15-17 15-53c-1-64 63-63 125-63 3-35-9-54-41-54-24 1-41 7-42 31l-33-3c5-37 33-52 76-52 45 0 72 20 72 64v82c-1 20 7 32 28 27v20c-31 9-61-2-59-35zM48-53c0 20 12 33 32 33 41-3 63-29 60-74-43 2-92-5-92 41" id="bd"/><path d="M177-190C167-65 218 103 67 71c-23-6-38-20-44-43l32-5c15 47 100 32 89-28v-30C133-14 115 1 83 1 29 1 15-40 15-95c0-56 16-97 71-98 29-1 48 16 59 35 1-10 0-23 2-32h30zM94-22c36 0 50-32 50-73 0-42-14-75-50-75-39 0-46 34-46 75s6 73 46 73" id="be"/><g id="E"><use transform="matrix(0.05,0,0,0.05,0,0)" xlink:href="#bc"/><use transform="matrix(0.05,0,0,0.05,10,0)" xlink:href="#bd"/><use transform="matrix(0.05,0,0,0.05,20,0)" xlink:href="#aR"/><use transform="matrix(0.05,0,0,0.05,25,0)" xlink:href="#bd"/><use transform="matrix(0.05,0,0,0.05,35,0)" xlink:href="#be"/><use transform="matrix(0.05,0,0,0.05,45,0)" xlink:href="#aP"/><use transform="matrix(0.05,0,0,0.05,50.95,0)" xlink:href="#bd"/><use transform="matrix(0.05,0,0,0.05,60.95,0)" xlink:href="#aY"/><use transform="matrix(0.05,0,0,0.05,75.9,0)" xlink:href="#bd"/></g><path fill="#333" d="M30-248c87 1 191-15 191 75 0 78-77 80-158 76V0H30v-248zm33 125c57 0 124 11 124-50 0-59-68-47-124-48v98" id="bf"/><path fill="#333" d="M115-194c55 1 70 41 70 98S169 2 115 4C84 4 66-9 55-30l1 105H24l-1-265h31l2 30c10-21 28-34 59-34zm-8 174c40 0 45-34 45-75s-6-73-45-74c-42 0-51 32-51 76 0 43 10 73 51 73" id="bg"/><g id="F"><use transform="matrix(0.04320987654320987,0,0,0.04320987654320987,0,0)" xlink:href="#bf"/><use transform="matrix(0.04320987654320987,0,0,0.04320987654320987,10.370370370370368,0)" xlink:href="#ag"/><use transform="matrix(0.04320987654320987,0,0,0.04320987654320987,13.783950617283947,0)" xlink:href="#bg"/><use transform="matrix(0.04320987654320987,0,0,0.04320987654320987,22.42592592592592,0)" xlink:href="#ad"/><use transform="matrix(0.04320987654320987,0,0,0.04320987654320987,31.06790123456789,0)" xlink:href="#ao"/></g><g id="G"><use transform="matrix(0.04320987654320987,0,0,0.04320987654320987,0,0)" xlink:href="#bf"/><use transform="matrix(0.04320987654320987,0,0,0.04320987654320987,10.370370370370368,0)" xlink:href="#ad"/><use transform="matrix(0.04320987654320987,0,0,0.04320987654320987,19.01234567901234,0)" xlink:href="#ak"/><use transform="matrix(0.04320987654320987,0,0,0.04320987654320987,24.154320987654316,0)" xlink:href="#al"/><use transform="matrix(0.04320987654320987,0,0,0.04320987654320987,37.07407407407406,0)" xlink:href="#ag"/><use transform="matrix(0.04320987654320987,0,0,0.04320987654320987,40.487654320987644,0)" xlink:href="#ar"/><use transform="matrix(0.04320987654320987,0,0,0.04320987654320987,44.80864197530863,0)" xlink:href="#ad"/></g><g id="H"><use transform="matrix(0.04320987654320987,0,0,0.04320987654320987,0,0)" xlink:href="#aq"/><use transform="matrix(0.04320987654320987,0,0,0.04320987654320987,7.777777777777776,0)" xlink:href="#af"/><use transform="matrix(0.04320987654320987,0,0,0.04320987654320987,16.41975308641975,0)" xlink:href="#ae"/><use transform="matrix(0.04320987654320987,0,0,0.04320987654320987,19.83333333333333,0)" xlink:href="#ag"/><use transform="matrix(0.04320987654320987,0,0,0.04320987654320987,23.246913580246908,0)" xlink:href="#an"/><use transform="matrix(0.04320987654320987,0,0,0.04320987654320987,31.88888888888888,0)" xlink:href="#af"/></g><use transform="matrix(0.04320987654320987,0,0,0.04320987654320987,0,0)" xlink:href="#aw" id="I"/><g id="J"><use transform="matrix(0.04320987654320987,0,0,0.04320987654320987,0,0)" xlink:href="#ad"/><use transform="matrix(0.04320987654320987,0,0,0.04320987654320987,8.641975308641973,0)" xlink:href="#ah"/><use transform="matrix(0.04320987654320987,0,0,0.04320987654320987,17.283950617283946,0)" xlink:href="#ar"/><use transform="matrix(0.04320987654320987,0,0,0.04320987654320987,21.604938271604933,0)" xlink:href="#ak"/><use transform="matrix(0.04320987654320987,0,0,0.04320987654320987,26.746913580246908,0)" xlink:href="#af"/><use transform="matrix(0.04320987654320987,0,0,0.04320987654320987,35.38888888888888,0)" xlink:href="#an"/><use transform="matrix(0.04320987654320987,0,0,0.04320987654320987,44.03086419753085,0)" xlink:href="#af"/></g><path fill="#333" d="M134-131c28 9 52 24 51 62-1 50-34 73-85 73S17-19 16-69c0-36 21-54 49-61-75-25-45-126 34-121 46 3 78 18 79 63 0 33-17 51-44 57zm-34-11c31 1 46-15 46-44 0-28-17-43-47-42-29 0-46 13-45 42 1 28 16 44 46 44zm1 122c35 0 51-18 51-52 0-30-18-46-53-46-33 0-51 17-51 47 0 34 19 51 53 51" id="bh"/><path fill="#333" d="M101-251c68 0 85 55 85 127S166 4 100 4C33 4 14-52 14-124c0-73 17-127 87-127zm-1 229c47 0 54-49 54-102s-4-102-53-102c-51 0-55 48-55 102 0 53 5 102 54 102" id="bi"/><g id="K"><use transform="matrix(0.06172839506172839,0,0,0.06172839506172839,0,0)" xlink:href="#bh"/><use transform="matrix(0.06172839506172839,0,0,0.06172839506172839,12.345679012345679,0)" xlink:href="#bi"/></g><path fill="#333" d="M126-127c33 6 58 20 58 59 0 88-139 92-164 29-3-8-5-16-6-25l32-3c6 27 21 44 54 44 32 0 52-15 52-46 0-38-36-46-79-43v-28c39 1 72-4 72-42 0-27-17-43-46-43-28 0-47 15-49 41l-32-3c6-42 35-63 81-64 48-1 79 21 79 65 0 36-21 52-52 59" id="bj"/><use transform="matrix(0.06172839506172839,0,0,0.06172839506172839,0,0)" xlink:href="#bj" id="L"/><path fill="#333" d="M30 0v-248h187v28H63v79h144v27H63v87h162V0H30" id="bk"/><g id="M"><use transform="matrix(0.04320987654320987,0,0,0.04320987654320987,0,0)" xlink:href="#bk"/><use transform="matrix(0.04320987654320987,0,0,0.04320987654320987,10.370370370370368,0)" xlink:href="#ae"/></g><path fill="#333" d="M108 0H70L1-190h34L89-25l56-165h34" id="bl"/><g id="N"><use transform="matrix(0.04320987654320987,0,0,0.04320987654320987,0,0)" xlink:href="#aq"/><use transform="matrix(0.04320987654320987,0,0,0.04320987654320987,7.777777777777776,0)" xlink:href="#ad"/><use transform="matrix(0.04320987654320987,0,0,0.04320987654320987,16.41975308641975,0)" xlink:href="#bl"/><use transform="matrix(0.04320987654320987,0,0,0.04320987654320987,24.197530864197525,0)" xlink:href="#ag"/><use transform="matrix(0.04320987654320987,0,0,0.04320987654320987,27.611111111111104,0)" xlink:href="#an"/><use transform="matrix(0.04320987654320987,0,0,0.04320987654320987,36.253086419753075,0)" xlink:href="#aj"/><use transform="matrix(0.04320987654320987,0,0,0.04320987654320987,44.89506172839505,0)" xlink:href="#ak"/></g><path fill="#333" d="M106-169C34-169 62-67 57 0H25v-261h32l-1 103c12-21 28-36 61-36 89 0 53 116 60 194h-32v-121c2-32-8-49-39-48" id="bm"/><g id="O"><use transform="matrix(0.04320987654320987,0,0,0.04320987654320987,0,0)" xlink:href="#bm"/><use transform="matrix(0.04320987654320987,0,0,0.04320987654320987,8.641975308641973,0)" xlink:href="#ar"/><use transform="matrix(0.04320987654320987,0,0,0.04320987654320987,12.962962962962958,0)" xlink:href="#ar"/><use transform="matrix(0.04320987654320987,0,0,0.04320987654320987,17.283950617283946,0)" xlink:href="#bg"/></g><g id="P"><use transform="matrix(0.04320987654320987,0,0,0.04320987654320987,0,0)" xlink:href="#ad"/><use transform="matrix(0.04320987654320987,0,0,0.04320987654320987,8.641975308641973,0)" xlink:href="#aq"/><use transform="matrix(0.04320987654320987,0,0,0.04320987654320987,16.41975308641975,0)" xlink:href="#ar"/><use transform="matrix(0.04320987654320987,0,0,0.04320987654320987,20.740740740740737,0)" xlink:href="#af"/></g><g id="Q"><use transform="matrix(0.04320987654320987,0,0,0.04320987654320987,0,0)" xlink:href="#ad"/><use transform="matrix(0.04320987654320987,0,0,0.04320987654320987,8.641975308641973,0)" xlink:href="#aq"/><use transform="matrix(0.04320987654320987,0,0,0.04320987654320987,16.41975308641975,0)" xlink:href="#am"/><use transform="matrix(0.04320987654320987,0,0,0.04320987654320987,24.197530864197525,0)" xlink:href="#at"/><use transform="matrix(0.04320987654320987,0,0,0.04320987654320987,32.8395061728395,0)" xlink:href="#am"/><use transform="matrix(0.04320987654320987,0,0,0.04320987654320987,40.61728395061728,0)" xlink:href="#bm"/><use transform="matrix(0.04320987654320987,0,0,0.04320987654320987,49.259259259259245,0)" xlink:href="#af"/><use transform="matrix(0.04320987654320987,0,0,0.04320987654320987,57.901234567901234,0)" xlink:href="#ah"/><use transform="matrix(0.04320987654320987,0,0,0.04320987654320987,66.5432098765432,0)" xlink:href="#an"/><use transform="matrix(0.04320987654320987,0,0,0.04320987654320987,75.18518518518518,0)" xlink:href="#aj"/></g><path fill="#333" d="M9 0v-24l116-142H16v-24h144v24L44-24h123V0H9" id="bn"/><g id="R"><use transform="matrix(0.04320987654320987,0,0,0.04320987654320987,0,0)" xlink:href="#af"/><use transform="matrix(0.04320987654320987,0,0,0.04320987654320987,8.641975308641973,0)" xlink:href="#ar"/><use transform="matrix(0.04320987654320987,0,0,0.04320987654320987,12.962962962962958,0)" xlink:href="#ak"/><use transform="matrix(0.04320987654320987,0,0,0.04320987654320987,18.104938271604933,0)" xlink:href="#af"/><use transform="matrix(0.04320987654320987,0,0,0.04320987654320987,26.746913580246904,0)" xlink:href="#bl"/><use transform="matrix(0.04320987654320987,0,0,0.04320987654320987,34.52469135802468,0)" xlink:href="#ad"/><use transform="matrix(0.04320987654320987,0,0,0.04320987654320987,43.16666666666666,0)" xlink:href="#bn"/></g><g id="S"><use transform="matrix(0.04320987654320987,0,0,0.04320987654320987,0,0)" xlink:href="#an"/><use transform="matrix(0.04320987654320987,0,0,0.04320987654320987,8.641975308641973,0)" xlink:href="#ad"/><use transform="matrix(0.04320987654320987,0,0,0.04320987654320987,17.283950617283946,0)" xlink:href="#ae"/></g><g id="T"><use transform="matrix(0.04320987654320987,0,0,0.04320987654320987,0,0)" xlink:href="#bg"/><use transform="matrix(0.04320987654320987,0,0,0.04320987654320987,8.641975308641973,0)" xlink:href="#at"/><use transform="matrix(0.04320987654320987,0,0,0.04320987654320987,17.283950617283946,0)" xlink:href="#ad"/><use transform="matrix(0.04320987654320987,0,0,0.04320987654320987,25.925925925925917,0)" xlink:href="#ak"/><use transform="matrix(0.04320987654320987,0,0,0.04320987654320987,31.06790123456789,0)" xlink:href="#ar"/><use transform="matrix(0.04320987654320987,0,0,0.04320987654320987,35.38888888888888,0)" xlink:href="#aj"/></g><g id="U"><use transform="matrix(0.04320987654320987,0,0,0.04320987654320987,0,0)" xlink:href="#bh"/><use transform="matrix(0.04320987654320987,0,0,0.04320987654320987,8.641975308641973,0)" xlink:href="#bi"/></g><g id="V"><use transform="matrix(0.04320987654320987,0,0,0.04320987654320987,0,0)" xlink:href="#ac"/><use transform="matrix(0.04320987654320987,0,0,0.04320987654320987,8.641975308641973,0)" xlink:href="#aj"/><use transform="matrix(0.04320987654320987,0,0,0.04320987654320987,17.283950617283946,0)" xlink:href="#aq"/></g><g id="W"><use transform="matrix(0.04320987654320987,0,0,0.04320987654320987,0,0)" xlink:href="#bg"/><use transform="matrix(0.04320987654320987,0,0,0.04320987654320987,8.641975308641973,0)" xlink:href="#ak"/><use transform="matrix(0.04320987654320987,0,0,0.04320987654320987,13.783950617283947,0)" xlink:href="#ag"/><use transform="matrix(0.04320987654320987,0,0,0.04320987654320987,17.197530864197528,0)" xlink:href="#al"/><use transform="matrix(0.04320987654320987,0,0,0.04320987654320987,30.117283950617278,0)" xlink:href="#ad"/><use transform="matrix(0.04320987654320987,0,0,0.04320987654320987,38.75925925925925,0)" xlink:href="#ak"/><use transform="matrix(0.04320987654320987,0,0,0.04320987654320987,43.90123456790123,0)" xlink:href="#aj"/><use transform="matrix(0.04320987654320987,0,0,0.04320987654320987,52.5432098765432,0)" xlink:href="#aq"/></g><g id="X"><use transform="matrix(0.04320987654320987,0,0,0.04320987654320987,0,0)" xlink:href="#an"/><use transform="matrix(0.04320987654320987,0,0,0.04320987654320987,8.641975308641973,0)" xlink:href="#aj"/><use transform="matrix(0.04320987654320987,0,0,0.04320987654320987,17.283950617283946,0)" xlink:href="#aq"/></g><g id="Y"><use transform="matrix(0.04320987654320987,0,0,0.04320987654320987,0,0)" xlink:href="#bg"/><use transform="matrix(0.04320987654320987,0,0,0.04320987654320987,8.641975308641973,0)" xlink:href="#at"/><use transform="matrix(0.04320987654320987,0,0,0.04320987654320987,17.283950617283946,0)" xlink:href="#ad"/><use transform="matrix(0.04320987654320987,0,0,0.04320987654320987,25.925925925925917,0)" xlink:href="#ak"/><use transform="matrix(0.04320987654320987,0,0,0.04320987654320987,31.06790123456789,0)" xlink:href="#ar"/><use transform="matrix(0.04320987654320987,0,0,0.04320987654320987,35.38888888888888,0)" xlink:href="#aj"/><use transform="matrix(0.04320987654320987,0,0,0.04320987654320987,44.03086419753085,0)" xlink:href="#aq"/></g><g id="Z"><use transform="matrix(0.04320987654320987,0,0,0.04320987654320987,0,0)" xlink:href="#ah"/><use transform="matrix(0.04320987654320987,0,0,0.04320987654320987,8.641975308641973,0)" xlink:href="#aj"/></g><g id="aa"><use transform="matrix(0.04320987654320987,0,0,0.04320987654320987,0,0)" xlink:href="#bg"/><use transform="matrix(0.04320987654320987,0,0,0.04320987654320987,8.641975308641973,0)" xlink:href="#at"/><use transform="matrix(0.04320987654320987,0,0,0.04320987654320987,17.283950617283946,0)" xlink:href="#ad"/><use transform="matrix(0.04320987654320987,0,0,0.04320987654320987,25.925925925925917,0)" xlink:href="#an"/><use transform="matrix(0.04320987654320987,0,0,0.04320987654320987,34.56790123456789,0)" xlink:href="#ad"/><use transform="matrix(0.04320987654320987,0,0,0.04320987654320987,43.209876543209866,0)" xlink:href="#ah"/></g><g id="ab"><use transform="matrix(0.04320987654320987,0,0,0.04320987654320987,0,0)" xlink:href="#at"/><use transform="matrix(0.04320987654320987,0,0,0.04320987654320987,8.641975308641973,0)" xlink:href="#aq"/><use transform="matrix(0.04320987654320987,0,0,0.04320987654320987,16.41975308641975,0)" xlink:href="#af"/><use transform="matrix(0.04320987654320987,0,0,0.04320987654320987,25.061728395061724,0)" xlink:href="#ak"/><use transform="matrix(0.04320987654320987,0,0,0.04320987654320987,30.2037037037037,0)" xlink:href="#aq"/><use transform="matrix(0.04320987654320987,0,0,0.04320987654320987,37.981481481481474,0)" xlink:href="#ad"/></g></defs></g></svg>